<?xml version="1.0" encoding="utf-8"?>
<!-- Generator: Adobe Illustrator 26.0.0, SVG Export Plug-In . SVG Version: 6.00 Build 0)  -->
<svg version="1.1" id="图层_1" xmlns="http://www.w3.org/2000/svg" xmlns:xlink="http://www.w3.org/1999/xlink" x="0px" y="0px"
	 viewBox="0 0 2000 1000" style="enable-background:new 0 0 2000 1000;" xml:space="preserve">
<style type="text/css">
	.st0{fill:none;stroke:#00FF00;stroke-miterlimit:10;}
</style>
<path class="st0" d="M760.5,174.5c0,0,12,18,12,18s12,10,12,10s31,21,31,21l37,33l23,31l16,36c0,0,6,42,6,42s-6,34-6,34l-9,26  c-8.1,15.5-22,42-35,54c0,0,14,7,14,7l11,9c11.7,11.1,25.2,26.3,32,41c-12.3,5.1-40,13.5-53,17c-12.4,1.8-38.8,2.3-51.4,2  c0,0-23.6-5-23.6-5l-17-8c0,0-10-9-10-9s-3-5-3-5s30-7,30-7l21-8c16.4-8.9,36.7-20.7,50-34l-14,13c-11.2,7.3-35.6,21.5-48,26  c-8.6,2.8-30.9,8-40,10c0,0-39,6-39,6c-15.2,0-51.5-0.8-66-5l-7,11l-26,13c0,0-35,7-35,7l-56,1c-13-2.3-47.1-5.9-59-11  c6.3-7.8,27.9-34.2,33-42c0,0,32-23,32-23l2-2l28,18c23.2,9.7,63.7,20.6,88,28l-40-13c-3.3-9-11.4-26.5-16-35c0,0-5-16-5-16  c-0.6-7.6-1.3-23.4-1-31c-0.2,7.6,0.4,23.4,1,31c2.4,10.8,15.4,40.5,20,51c0,0-46-15-46-15s-29-19-29-19s-22-22-22-22s-13-27-13-27  s-9-34-9-34s1-40,1-40s15-41,15-41l27-40c0,0,30-31,30-31s33-22,33-22c17.5-10.1,60.4-24.3,80-30c0,0,43-10,43-10  c8.8-2.7,35.1-12.1,44-14L760.5,174.5z"/>
</svg>
